<?xml version="1.0" encoding="UTF-8"?>
<svg id="Capa_2" data-name="Capa 2" xmlns="http://www.w3.org/2000/svg" viewBox="0 0 100 100">
  <defs>
    <style>
      .cls-1 {
        fill: #fff;
      }
    </style>
  </defs>
  <g id="Capa_1-2" data-name="Capa 1">
    <path class="cls-1" d="M100,29.5v1.95c-.12,.33-.24,.67-.36,1-.83,2.28-2.92,3.81-5.34,3.87-1.07,.03-2.14,0-3.21,0-.66,0-1.33,0-1.97,0v7.81c1.7,0,3.35-.03,4.99,0,2.95,.06,5.02,1.75,5.72,4.62,.04,.15,.11,.3,.17,.45v1.56c-.06,.15-.14,.29-.17,.45-.58,2.56-2.18,4.09-4.75,4.5-1.11,.18-2.26,.1-3.4,.12-.86,.02-1.72,0-2.56,0v7.81c1.73,0,3.41-.03,5.09,0,2.1,.05,3.76,.96,4.87,2.75,.4,.65,.62,1.41,.93,2.13v1.95c-1.14,3.96-3.92,5.12-7.17,4.9-1.22-.08-2.45-.01-3.76-.01,0,1.81,0,3.53,0,5.24,0,4.09-2.39,6.47-6.48,6.47-2.36,0-4.73,0-7.19,0,0,2.39,.02,4.69,0,6.99-.02,2.1-.9,3.78-2.67,4.92-.67,.43-1.47,.66-2.21,.98h-1.95c-.12-.06-.23-.13-.35-.16-2.89-.83-4.52-2.94-4.53-5.92,0-1.98,0-3.96,0-5.95,0-.28-.04-.55-.05-.81h-7.75c0,2.35,.02,4.65,0,6.95-.02,2.1-.9,3.78-2.67,4.91-.67,.43-1.47,.66-2.2,.98h-1.95c-.12-.06-.23-.13-.35-.16-2.89-.83-4.52-2.94-4.53-5.92,0-1.98,0-3.96,0-5.95,0-.28-.04-.55-.05-.81h-7.75c0,2.35,.02,4.65,0,6.95-.02,2.1-.9,3.78-2.67,4.91-.67,.43-1.47,.66-2.2,.98h-1.95c-3.88-1.47-4.88-2.94-4.88-7.17,0-1.88,0-3.75,0-5.72-2.5,0-4.9,0-7.3,0-3.95,0-6.36-2.43-6.36-6.4,0-1.75,0-3.49,0-5.32-1.67,0-3.22,0-4.78,0-3.51-.01-6.14-2.51-6.16-5.83-.01-3.37,2.62-5.88,6.19-5.89,1.55,0,3.1,0,4.68,0v-7.81c-1.72,0-3.37,.02-5.03,0-1.94-.03-3.54-.81-4.68-2.39-1.35-1.87-1.57-3.91-.57-5.99,1.02-2.11,2.78-3.23,5.12-3.32,1.71-.06,3.43-.01,5.21-.01v-7.82c-1.83,0-3.52,.03-5.2,0C2.56,36.25,.03,33.64,.03,30.47c0-3.18,2.54-5.78,5.74-5.84,1.71-.04,3.42,0,5.2,0,0-2.05-.02-3.96,0-5.88,.04-3.27,2.57-5.8,5.84-5.84,2.18-.03,4.36,0,6.54,0,.41,0,.82,0,1.28,0,0-2.44-.02-4.75,0-7.05,.04-3.04,2.29-5.51,5.26-5.81,3-.31,5.72,1.72,6.32,4.74,.13,.66,.12,1.36,.12,2.04,.01,2.01,0,4.01,0,6.01h7.81c0-2.38-.03-4.69,0-7C44.21,2.56,46.81,0,50.03,.01c3.22,0,5.79,2.57,5.84,5.84,.03,2.02,0,4.04,0,6.05,0,.31,.03,.62,.04,.91h7.77c0-2.39-.03-4.7,0-7.01,.05-3.22,2.61-5.77,5.78-5.8,3.22-.03,5.85,2.52,5.91,5.76,.04,2.05,0,4.1,.01,6.15,0,.31,0,.62,0,.89,.18,.05,.21,.06,.24,.06,2.54,0,5.08,0,7.61,.03,2.83,.04,5.17,1.92,5.66,4.71,.23,1.33,.13,2.72,.16,4.08,.02,.96,0,1.92,0,2.92,1.81,0,3.47-.03,5.13,0,2.06,.04,3.71,.92,4.83,2.66,.43,.67,.66,1.47,.98,2.21Zm-49.99-12.69c-10.8,0-21.6,0-32.4,0-2.16,0-2.74,.58-2.74,2.7,0,20.34,0,40.67,0,61.01,0,2.12,.59,2.7,2.74,2.7,21.6,0,43.2,0,64.8,0,2.15,0,2.74-.58,2.74-2.7,0-20.34,0-40.67,0-61.01,0-2.12-.59-2.69-2.75-2.69-10.8,0-21.6,0-32.4,0Zm-17.59-3.95c0-2.41,.04-4.78-.02-7.14-.03-1.07-.92-1.8-1.95-1.78-1.04,.02-1.84,.75-1.9,1.84-.06,1.01-.02,2.02-.02,3.02,0,1.35,0,2.7,0,4.05h3.89Zm19.53,0c0-2.42,.04-4.76-.02-7.09-.02-1.09-.87-1.82-1.9-1.83-.99-.01-1.9,.68-1.93,1.69-.07,2.39-.02,4.79-.02,7.23h3.87Zm19.52,0c0-2.43,.04-4.77-.02-7.1-.02-1.09-.88-1.82-1.91-1.83-.99,0-1.89,.68-1.92,1.7-.07,2.39-.02,4.79-.02,7.23h3.87ZM28.54,87.13c0,2.33-.01,4.56,0,6.8,.01,1.3,.77,2.12,1.91,2.14,1.17,.02,1.97-.82,1.99-2.16,.02-2.02,0-4.03,0-6.05,0-.24-.05-.49-.07-.73h-3.83Zm19.54,.02c0,2.41-.03,4.74,.01,7.08,.02,1.09,.86,1.83,1.9,1.84,1.03,.02,1.92-.7,1.95-1.78,.06-2.36,.02-4.73,.02-7.14h-3.88Zm19.53,0c0,2.41-.03,4.74,.01,7.08,.02,1.09,.86,1.83,1.9,1.84,1.03,.02,1.92-.7,1.95-1.78,.06-2.36,.02-4.73,.02-7.14h-3.88ZM10.92,28.53c-1.78,0-3.46-.04-5.15,.01-1.09,.04-1.82,.88-1.83,1.91,0,.99,.68,1.88,1.7,1.92,1.74,.08,3.49,.02,5.27,.02v-3.87Zm78.19,3.87c1.79,0,3.54,.05,5.28-.02,.98-.04,1.65-.89,1.68-1.84,.03-.95-.6-1.89-1.55-1.94-1.8-.1-3.61-.03-5.41-.03v3.83ZM10.91,51.94v-3.87c-1.77,0-3.49-.05-5.2,.02-1.03,.04-1.74,.88-1.76,1.87-.02,1.03,.7,1.92,1.77,1.97,1.71,.07,3.43,.02,5.19,.02Zm78.2,0c1.77,0,3.42,.03,5.08-.01,1.11-.03,1.85-.81,1.89-1.85,.04-.99-.63-1.93-1.63-1.98-1.77-.09-3.55-.02-5.34-.02v3.87ZM10.92,67.59c-1.77,0-3.42-.03-5.08,.01-1.1,.03-1.85,.82-1.89,1.85-.04,.99,.63,1.93,1.63,1.98,1.77,.09,3.55,.02,5.34,.02v-3.87Zm78.18,3.89c1.76,0,3.42,.03,5.07-.01,1.11-.03,1.85-.8,1.9-1.84,.05-.99-.62-1.94-1.62-1.99-1.77-.09-3.55-.02-5.35-.02v3.87ZM50.07,21.68c9.21,0,18.41,0,27.62,0,1.95,0,2.59,.63,2.59,2.56,0,11.97,0,23.95,.02,35.92,0,.99-.33,1.73-1.02,2.42-4.94,4.91-9.86,9.83-14.77,14.77-.66,.67-1.38,.98-2.33,.98-13.31-.02-26.61-.01-39.92-.01-1.85,0-2.5-.66-2.5-2.54,0-17.18,0-34.36,0-51.54,0-1.92,.64-2.55,2.6-2.55,9.24,0,18.48,0,27.72,0Zm-26.34,3.95v48.74c.2,.02,.32,.04,.45,.04,12.36,0,24.73,0,37.09-.02,.41,0,.92-.29,1.22-.6,4.44-4.4,8.84-8.83,13.27-13.23,.46-.45,.62-.91,.62-1.54-.02-10.8-.01-21.61-.01-32.41v-.98H23.72Z"/>
  </g>
</svg>