<?xml version="1.0" encoding="UTF-8"?>
<svg id="Capa_2" data-name="Capa 2" xmlns="http://www.w3.org/2000/svg" viewBox="0 0 100 100">
  <defs>
    <style>
      .cls-1 {
        fill: #fff;
      }
    </style>
  </defs>
  <g id="Capa_1-2" data-name="Capa 1">
    <path class="cls-1" d="M85.16,11.72h-11.72c-1.62,0-2.93,1.31-2.93,2.93s1.31,2.93,2.93,2.93h2.04L22.4,52.97l.93-1.85c.72-1.45,.14-3.21-1.31-3.93-1.45-.72-3.21-.14-3.93,1.31l-5.86,11.72c-.95,1.9,.4,4.24,2.63,4.24h11.71c1.62,0,2.93-1.31,2.93-2.93s-1.31-2.93-2.93-2.93h-2.04L77.6,23.21l-.93,1.85c-.72,1.45-.14,3.21,1.31,3.93,1.45,.72,3.21,.13,3.93-1.31l5.86-11.72c.98-1.95-.46-4.24-2.62-4.24h0ZM91.21,0H8.79C3.94,0,0,3.94,0,8.79v58.59c0,4.85,3.94,8.79,8.79,8.79h26.56v17.97h-8.79c-1.62,0-2.93,1.31-2.93,2.93s1.31,2.93,2.93,2.93h46.88c1.62,0,2.93-1.31,2.93-2.93s-1.31-2.93-2.93-2.93h-8.79v-17.97h26.56c4.85,0,8.79-3.94,8.79-8.79V8.79c0-4.85-3.94-8.79-8.79-8.79ZM58.79,94.14h-17.58v-17.97h17.58v17.97Zm35.35-26.76c0,1.62-1.31,2.93-2.93,2.93H8.79c-1.62,0-2.93-1.31-2.93-2.93V8.79c0-1.62,1.31-2.93,2.93-2.93H91.21c1.62,0,2.93,1.31,2.93,2.93v58.59Z"/>
  </g>
</svg>