<?xml version="1.0" encoding="UTF-8"?>
<svg id="Capa_2" data-name="Capa 2" xmlns="http://www.w3.org/2000/svg" viewBox="0 0 106.33 100">
  <defs>
    <style>
      .cls-1 {
        fill: #fff;
      }

      .cls-2 {
        fill: #fd312e;
      }
    </style>
  </defs>
  <g id="Capa_1-2" data-name="Capa 1">
    <g>
      <path class="cls-2" d="M46.2,0h51.6c6.81,0,10.77,7.46,7.18,13.24-6.58,10.59-10.43,23.2-10.43,36.76,0,13.56,3.84,26.18,10.43,36.76,3.59,5.78-.38,13.24-7.18,13.24H46.2C20.68,100,0,78.3,0,51.52v-3.05C0,21.7,20.68,0,46.2,0Z"/>
      <path class="cls-1" d="M61.79,76.05c.68,0,1.37-.25,1.91-.74,1.15-1.06,1.23-2.85,.18-4l-19.5-21.31,19.5-21.31c1.06-1.16,.98-2.95-.18-4s-2.95-.98-4,.18l-21.25,23.22c-.99,1.08-.99,2.75,0,3.83l21.25,23.22c.56,.61,1.32,.92,2.09,.92Z"/>
    </g>
  </g>
</svg>