<?xml version="1.0" encoding="UTF-8"?>
<svg id="Capa_2" data-name="Capa 2" xmlns="http://www.w3.org/2000/svg" viewBox="0 0 100 100">
  <defs>
    <style>
      .cls-1 {
        fill: #fff;
      }
    </style>
  </defs>
  <g id="Capa_1-2" data-name="Capa 1">
    <path class="cls-1" d="M81.21,49.98c0-7.14-2.44-14.05-6.94-19.61-.51-.63-1.43-.73-2.06-.22-.63,.51-.73,1.43-.22,2.06,.18,.22,.35,.44,.52,.66h-11.55c-.06,0-.1-.05-.1-.1v-8.9c2.47,1.03,4.81,2.41,6.92,4.12,.63,.51,1.55,.41,2.06-.22,.51-.63,.41-1.55-.22-2.06-5.96-4.83-13.48-7.28-21.17-6.9-7.75,.38-15.04,3.61-20.53,9.1s-8.72,12.78-9.1,20.53c-.38,7.69,2.07,15.21,6.9,21.17,.29,.36,.71,.54,1.14,.54,.32,0,.65-.11,.92-.33,.63-.51,.73-1.43,.22-2.06-4.37-5.4-6.59-12.21-6.25-19.18,.35-7.02,3.28-13.63,8.25-18.6,4.97-4.97,11.58-7.9,18.6-8.25,.5-.02,1-.03,1.5-.03v6.63c0,.45-.17,.86-.49,1.18l-4.43,4.43c-.31,.31-.73,.49-1.18,.49h-3.74c-.61-1.82-2.33-3.13-4.36-3.13-2.53,0-4.6,2.06-4.6,4.6s2.06,4.6,4.6,4.6c2.02,0,3.74-1.31,4.36-3.13h3.74c1.23,0,2.38-.48,3.25-1.35l4.43-4.43c.87-.87,1.35-2.02,1.35-3.25v-6.47c1.66,.18,3.3,.5,4.9,.97v9.93c0,1.67,1.36,3.03,3.03,3.03h13.51c.91,1.56,1.66,3.2,2.25,4.9h-19.23c-.61-1.82-2.33-3.13-4.36-3.13-2.53,0-4.6,2.06-4.6,4.6s2.06,4.6,4.6,4.6c2.02,0,3.74-1.31,4.36-3.13h20.07c.37,1.6,.6,3.24,.68,4.9h-15.99c-1.23,0-2.38,.48-3.25,1.35l-4.43,4.43c-.31,.31-.73,.49-1.18,.49h-5.31c-.61-1.82-2.33-3.13-4.36-3.13-2.53,0-4.6,2.06-4.6,4.6s2.06,4.6,4.6,4.6c2.02,0,3.74-1.31,4.36-3.13h5.31c1.23,0,2.38-.48,3.25-1.35l4.43-4.43c.31-.31,.73-.49,1.18-.49h15.99c-.09,1.66-.32,3.3-.69,4.9h-12.17c-1.23,0-2.38,.48-3.25,1.35l-9.13,9.13c-.87,.87-1.35,2.02-1.35,3.25v8.15c-.09,0-.18,.01-.27,.02-2.63,.13-5.24-.11-7.76-.69v-7.48c0-1.23-.48-2.38-1.35-3.25l-7.56-7.56c-.31-.31-.49-.73-.49-1.18v-5.31c1.82-.61,3.13-2.33,3.13-4.36,0-2.53-2.06-4.6-4.6-4.6s-4.6,2.06-4.6,4.6c0,2.02,1.31,3.74,3.13,4.36v5.31c0,1.23,.48,2.38,1.35,3.25l7.56,7.56c.31,.31,.49,.73,.49,1.18v6.63c-3.06-1.06-5.93-2.65-8.49-4.72-.63-.51-1.55-.41-2.06,.22-.51,.63-.41,1.55,.22,2.06,5.56,4.5,12.47,6.94,19.62,6.94,.52,0,1.03-.01,1.55-.04,7.75-.38,15.04-3.61,20.53-9.1s8.72-12.78,9.1-20.53c.02-.51,.04-1.02,.04-1.53,0,0,0,0,0-.01,0,0,0-.01,0-.02Zm-45.3-12.4c-.92,0-1.67-.75-1.67-1.67s.75-1.67,1.67-1.67,1.67,.75,1.67,1.67c0,.92-.75,1.67-1.67,1.67Zm17.22,6.26c-.92,0-1.67-.75-1.67-1.67s.75-1.67,1.67-1.67,1.67,.75,1.67,1.67-.75,1.67-1.67,1.67Zm-9.39,14.09c-.92,0-1.67-.75-1.67-1.67s.75-1.67,1.67-1.67,1.67,.75,1.67,1.67-.75,1.67-1.67,1.67Zm-10.96-7.83c-.92,0-1.67-.75-1.67-1.67s.75-1.67,1.67-1.67,1.67,.75,1.67,1.67-.75,1.67-1.67,1.67Zm37.22,19.9c-4.21,4.21-9.59,6.96-15.4,7.91v-7.82c0-.44,.17-.86,.49-1.18l9.13-9.13c.31-.31,.73-.49,1.18-.49h11.33c-1.39,3.99-3.67,7.66-6.72,10.71Zm29.65-25.89c-.23-1.94-1.86-3.4-3.79-3.4h-4.72c-1.06-4.71-2.89-9.15-5.48-13.23l3.33-3.33c1.37-1.37,1.49-3.55,.28-5.09-1.22-1.55-2.54-3.04-3.92-4.42-1.38-1.38-2.86-2.7-4.42-3.92-1.53-1.21-3.72-1.09-5.09,.28l-3.33,3.33c-4.08-2.58-8.51-4.42-13.23-5.48V4.15c0-1.93-1.46-3.56-3.4-3.79-1.96-.23-3.94-.35-5.89-.35s-3.93,.12-5.89,.35c-1.94,.23-3.4,1.86-3.4,3.79v4.72c-4.71,1.06-9.15,2.89-13.23,5.48l-3.33-3.33c-1.37-1.37-3.55-1.49-5.09-.28-1.55,1.22-3.04,2.54-4.42,3.92-1.38,1.38-2.7,2.86-3.92,4.42-1.21,1.53-1.09,3.72,.28,5.09l3.33,3.33c-2.58,4.08-4.42,8.51-5.48,13.23H4.15c-1.93,0-3.56,1.46-3.79,3.4-.23,1.96-.35,3.94-.35,5.89s.12,3.93,.35,5.89c.23,1.94,1.86,3.4,3.79,3.4h4.72c1.06,4.71,2.89,9.15,5.48,13.23l-3.33,3.33c-1.37,1.37-1.49,3.55-.28,5.09,1.22,1.55,2.54,3.04,3.92,4.42,1.38,1.38,2.86,2.7,4.42,3.92,1.53,1.21,3.72,1.09,5.09-.28l3.33-3.33c4.08,2.58,8.51,4.42,13.23,5.48v4.72c0,1.93,1.46,3.56,3.4,3.79,1.96,.23,3.94,.35,5.89,.35s3.93-.12,5.89-.35c1.94-.23,3.4-1.86,3.4-3.79v-4.72c4.71-1.06,9.15-2.89,13.23-5.48l3.33,3.33c1.37,1.37,3.55,1.49,5.09,.28,1.55-1.22,3.04-2.54,4.42-3.92s2.7-2.86,3.92-4.42c1.21-1.53,1.09-3.72-.28-5.09l-3.33-3.33c2.58-4.08,4.42-8.51,5.48-13.23h4.72c1.93,0,3.56-1.46,3.79-3.4,.23-1.96,.35-3.94,.35-5.89s-.12-3.93-.35-5.89Zm-2.91,11.44c-.06,.47-.44,.82-.88,.82h-5.91c-.7,0-1.3,.5-1.44,1.18-1.01,5.16-3,9.99-5.94,14.35-.39,.58-.32,1.36,.18,1.85l4.18,4.18c.32,.32,.34,.83,.05,1.2-1.15,1.46-2.39,2.86-3.69,4.16-1.3,1.3-2.7,2.54-4.16,3.69-.37,.29-.88,.27-1.2-.05l-4.18-4.18c-.5-.5-1.27-.57-1.85-.18-4.36,2.94-9.18,4.93-14.35,5.94-.69,.13-1.18,.74-1.18,1.44v5.91c0,.45-.35,.83-.82,.88-1.85,.22-3.71,.33-5.55,.33s-3.7-.11-5.55-.33c-.47-.06-.82-.44-.82-.88v-5.91c0-.7-.5-1.3-1.18-1.44-5.16-1.01-9.99-3-14.35-5.94-.25-.17-.53-.25-.82-.25-.38,0-.75,.15-1.04,.43l-4.18,4.18c-.32,.32-.83,.34-1.2,.05-1.46-1.15-2.86-2.39-4.16-3.69-1.3-1.3-2.54-2.7-3.69-4.16-.29-.37-.27-.88,.05-1.2l4.18-4.18c.5-.5,.57-1.27,.18-1.85-2.94-4.36-4.93-9.18-5.94-14.35-.13-.69-.74-1.18-1.44-1.18H4.15c-.45,0-.83-.35-.88-.82-.22-1.85-.33-3.71-.33-5.55s.11-3.7,.33-5.55c.06-.47,.44-.82,.88-.82h5.91c.7,0,1.3-.5,1.44-1.18,1.01-5.16,3-9.99,5.94-14.35,.39-.58,.32-1.36-.18-1.85l-4.18-4.18c-.32-.32-.34-.83-.05-1.2,1.15-1.46,2.39-2.86,3.69-4.16,1.3-1.3,2.7-2.54,4.16-3.69,.37-.29,.88-.27,1.2,.05l4.18,4.18c.5,.5,1.27,.57,1.85,.18,4.36-2.94,9.18-4.93,14.35-5.94,.69-.13,1.18-.74,1.18-1.44V4.15c0-.45,.35-.83,.82-.88,1.85-.22,3.71-.33,5.55-.33s3.7,.11,5.55,.33c.47,.06,.82,.44,.82,.88v5.91c0,.7,.5,1.3,1.18,1.44,5.16,1.01,9.99,3,14.35,5.94,.58,.39,1.36,.32,1.85-.18l4.18-4.18c.32-.32,.83-.34,1.2-.05,1.46,1.15,2.86,2.39,4.16,3.69,1.3,1.3,2.54,2.7,3.69,4.16,.29,.37,.27,.88-.05,1.2l-4.18,4.18c-.5,.5-.57,1.27-.18,1.85,2.94,4.36,4.93,9.18,5.94,14.35,.13,.69,.74,1.18,1.44,1.18h5.91c.45,0,.83,.35,.88,.82,.22,1.85,.33,3.71,.33,5.55s-.11,3.7-.33,5.55Z"/>
  </g>
</svg>