<?xml version="1.0" encoding="UTF-8"?>
<svg id="Capa_2" data-name="Capa 2" xmlns="http://www.w3.org/2000/svg" viewBox="0 0 106.33 100">
  <defs>
    <style>
      .cls-1 {
        fill: #fff;
      }

      .cls-2 {
        fill: #fd312e;
      }
    </style>
  </defs>
  <g id="Capa_1-2" data-name="Capa 1">
    <g>
      <path class="cls-2" d="M60.13,0H8.53C1.73,0-2.24,7.46,1.35,13.24c6.58,10.59,10.43,23.2,10.43,36.76s-3.84,26.18-10.43,36.76c-3.59,5.78,.38,13.24,7.18,13.24H60.13c25.52,0,46.2-21.7,46.2-48.48v-3.05C106.33,21.7,85.65,0,60.13,0Z"/>
      <path class="cls-1" d="M44.54,76.05c-.68,0-1.37-.25-1.91-.74-1.15-1.06-1.23-2.85-.18-4l19.5-21.31-19.5-21.31c-1.06-1.16-.98-2.95,.18-4s2.95-.98,4,.18l21.25,23.22c.99,1.08,.99,2.75,0,3.83l-21.25,23.22c-.56,.61-1.32,.92-2.09,.92Z"/>
    </g>
  </g>
</svg>